# xmcd
#
# Track frame offsets:
#	150
#	15575
#	28285
#	45621
#	60588
#	78636
#	93452
#	105926
#	128169
#	143520
#	157450
#	173510
#	193102
#	205849
#	222601
#	248966
#
# Disc length: 3325 seconds
#
# Revision: 1
# Processed by: cddbd v1.5.2PL0 Copyright (c) Steve Scherf et al.
# Submitted via: audiograbber 1.83.01
#
DISCID=e20cfb10
DTITLE=variuos - ask1521 party songs volume 1
DYEAR=2005
DGENRE=karaoke cd+g
TTITLE0=billy ray cyrus - acky breaky heart
TTITLE1=blue swede - hooked on a feeling
TTITLE2=cyndi lauper - firls just wanna have fun
TTITLE3=franki valli - december, 1963 (oh what a night)
TTITLE4=garth brooks - friends in low places
TTITLE5=george michael - faith
TTITLE6=joan jett and blackhearts - i love rock and roll
TTITLE7=kool and the gang - celebration
TTITLE8=marvin gaye - i heard it through the grapevine
TTITLE9=mc coys - hang on sloopy
TTITLE10=men at work - down under
TTITLE11=michael jackson - beat it
TTITLE12=patsy cline - crazy
TTITLE13=sonny and cher - i got you babe
TTITLE14=steppenwolf - born to be wild
TTITLE15=data only - Data Track
EXTD=
EXTT0=
EXTT1=
EXTT2=
EXTT3=
EXTT4=
EXTT5=
EXTT6=
EXTT7=
EXTT8=
EXTT9=
EXTT10=
EXTT11=
EXTT12=
EXTT13=
EXTT14=
EXTT15=
PLAYORDER=
